<svg width="51" height="51" viewBox="0 0 51 51" fill="none" xmlns="http://www.w3.org/2000/svg">
<mask id="mask0_4003_83" style="mask-type:alpha" maskUnits="userSpaceOnUse" x="0" y="0" width="51" height="51">
<rect width="51" height="51" fill="#D9D9D9"/>
</mask>
<g mask="url(#mask0_4003_83)">
<path d="M4 51.2382L15.1589 13.238L35.2364 37.673L4 51.2382ZM11.9783 41.5439L26.4129 35.295L17.1128 23.9759L11.9783 41.5439ZM31.6473 26.0875L29.2253 23.1399L40.9091 8.9204C42.0935 7.47903 43.5227 6.75834 45.1968 6.75834C46.871 6.75834 48.3002 7.47903 49.4846 8.9204L50.7596 10.4721L48.3248 13.4191L47.0498 11.8674C46.554 11.2639 45.9342 10.9622 45.1905 10.9622C44.4467 10.9622 43.8269 11.2639 43.3311 11.8674L31.6473 26.0875ZM22.7531 15.2785L20.3317 12.3161L21.5302 10.8568C22.026 10.2534 22.2739 9.52061 22.2739 8.65855C22.2739 7.79648 22.026 7.06373 21.5302 6.46029L20.1489 4.77926L22.5709 1.83165L23.9522 3.51267C25.1361 4.95404 25.7281 6.67192 25.7281 8.66631C25.7281 10.6607 25.1361 12.3786 23.9522 13.8199L22.7531 15.2785ZM27.2066 20.683L24.7719 17.7354L32.2694 8.6107C32.7652 8.00726 33.0132 7.25295 33.0132 6.34779C33.0132 5.44262 32.7652 4.68832 32.2694 4.08487L28.8694 -0.0530343L31.3041 -3L34.7041 1.13791C35.8881 2.57884 36.4801 4.31547 36.4801 6.34779C36.4801 8.3801 35.8881 10.1169 34.7041 11.5583L27.2066 20.683ZM36.0875 31.5069L33.6661 28.5444L36.9896 24.499C38.1739 23.058 39.6031 22.3376 41.2773 22.3376C42.9514 22.3376 44.3805 23.058 45.5645 24.499L48.9645 28.6369L46.5303 31.6L43.1303 27.4621C42.6344 26.8587 42.0147 26.5569 41.2709 26.5569C40.5272 26.5569 39.9074 26.8587 39.4115 27.4621L36.0875 31.5069Z" fill="#242565"/>
</g>
</svg>
