<svg viewBox="0 0 51 51" fill="none" xmlns="http://www.w3.org/2000/svg">
<mask id="mask0_4003_77" style="mask-type:alpha" maskUnits="userSpaceOnUse" x="0" y="0" width="51" height="51">
<rect width="51" height="51" fill="#D9D9D9"/>
</mask>
<g mask="url(#mask0_4003_77)">
<path d="M22.3173 26.0118C21.1886 26.0118 20.2613 25.4973 19.5357 24.4684C18.81 23.4396 18.5484 22.2394 18.751 20.8678L19.3375 16.5372C19.6208 14.6217 20.3586 13.0534 21.5507 11.8323C22.7425 10.6108 24.1267 10 25.7035 10C27.3163 10 28.7187 10.6108 29.9104 11.8323C31.1019 13.0534 31.8392 14.6217 32.1226 16.5372L32.7091 20.8678C32.9116 22.2394 32.6501 23.4396 31.9244 24.4684C31.1987 25.4973 30.2715 26.0118 29.1428 26.0118H22.3173ZM23.4653 20.4372H27.9948L27.5952 17.4547C27.5244 16.8926 27.3091 16.4388 26.9493 16.0931C26.5891 15.7474 26.1759 15.5745 25.7098 15.5745C25.2438 15.5745 24.8374 15.7474 24.4906 16.0931C24.1443 16.4388 23.9356 16.8926 23.8648 17.4547L23.4653 20.4372ZM6.76228 28.671C5.92432 28.715 5.20271 28.5139 4.59744 28.0678C3.99181 27.6212 3.60046 26.9344 3.42338 26.0072C3.35254 25.6102 3.33483 25.21 3.37025 24.8066C3.40567 24.4031 3.49846 24.029 3.64862 23.6842C3.64862 23.7376 3.63092 23.6456 3.5955 23.4081C3.52467 23.3128 3.34333 22.7859 3.0515 21.8273C2.98067 21.292 3.03379 20.779 3.21088 20.2885C3.38796 19.7976 3.62242 19.3745 3.91425 19.0193C3.90575 19.0193 3.94542 18.9762 4.03325 18.89C4.10621 18.0495 4.38866 17.3416 4.88059 16.7661C5.37289 16.1907 5.98347 15.903 6.71234 15.903C6.82709 15.903 7.17134 15.9892 7.74509 16.1616L7.90659 16.0969C8.09218 15.8814 8.33035 15.7172 8.62113 15.6043C8.9119 15.4918 9.22091 15.4355 9.54816 15.4355C9.94836 15.4355 10.3052 15.5133 10.6186 15.6689C10.9324 15.825 11.1789 16.0579 11.3581 16.3678C11.3939 16.3678 11.4206 16.3788 11.4383 16.4008C11.4564 16.4232 11.4833 16.4344 11.5191 16.4344C12.0202 16.4784 12.4638 16.6663 12.8499 16.9982C13.2363 17.3301 13.5207 17.7838 13.7031 18.3592C13.7739 18.6687 13.8005 18.9674 13.7828 19.2553C13.765 19.5428 13.7208 19.8193 13.6499 20.0848C13.6499 20.1176 13.6676 20.209 13.7031 20.359C13.9588 20.6693 14.1598 21.0131 14.306 21.3902C14.4523 21.767 14.5254 22.1549 14.5254 22.554C14.5254 22.7575 14.4149 23.2204 14.1939 23.9428C14.1585 24.0187 14.1585 24.11 14.1939 24.2169L14.3002 25.2805C14.3002 26.2111 13.982 27.0087 13.3455 27.6734C12.7087 28.3385 11.9351 28.671 11.0245 28.671H6.76228ZM42.7008 28.7221C41.4998 28.7221 40.4706 28.1997 39.6132 27.1548C38.7554 26.1105 38.3265 24.8549 38.3265 23.3881C38.3265 22.8549 38.3908 22.3566 38.5193 21.8932C38.6479 21.4303 38.8223 20.9784 39.0426 20.5374L37.5041 18.8745C37.1415 18.509 37.0774 18.0624 37.3118 17.5349C37.5463 17.0073 37.8826 16.7435 38.3207 16.7435H42.7008C43.9053 16.7435 44.9342 17.2646 45.7874 18.3068C46.6409 19.3491 47.0677 20.6019 47.0677 22.0652V23.3952C47.0677 24.8585 46.6402 26.1122 45.7853 27.1561C44.9299 28.2001 43.9018 28.7221 42.7008 28.7221ZM0 41.9931V37.6722C0 35.7007 0.806969 34.1214 2.42091 32.9343C4.03449 31.7468 6.12868 31.1531 8.70347 31.1531C9.09624 31.1531 9.469 31.1613 9.82175 31.1777C10.1749 31.194 10.5209 31.2352 10.8598 31.3012C10.347 32.2042 9.96023 33.1761 9.69956 34.2171C9.4389 35.2576 9.30856 36.3662 9.30856 37.5429V41.9931H0ZM12.75 41.9931V37.5429C12.75 34.6671 13.9462 32.3445 16.3386 30.5751C18.7313 28.8053 21.8524 27.9204 25.7019 27.9204C29.5871 27.9204 32.7176 28.8053 35.0933 30.5751C37.4691 32.3445 38.6569 34.6671 38.6569 37.5429V41.9931H12.75ZM42.7035 31.1531C45.3144 31.1531 47.4176 31.7468 49.0131 32.9343C50.609 34.1214 51.4069 35.7007 51.4069 37.6722V41.9931H42.0984V37.5429C42.0984 36.3671 41.9769 35.2589 41.7339 34.2184C41.491 33.1779 41.1265 32.2055 40.6406 31.3012C40.9796 31.2352 41.3192 31.194 41.6596 31.1777C42.0003 31.1613 42.3482 31.1531 42.7035 31.1531ZM25.7056 33.4949C23.8547 33.4949 22.1747 33.7848 20.6656 34.3645C19.1569 34.9438 18.2141 35.6233 17.8372 36.4031H33.6228C33.2106 35.6233 32.2589 34.9438 30.7679 34.3645C29.2765 33.7848 27.5891 33.4949 25.7056 33.4949Z" fill="#242565"/>
</g>
</svg>
