<svg width="18" height="27" viewBox="0 0 18 27" fill="none" xmlns="http://www.w3.org/2000/svg">
<path d="M17 10.7362C17 16.8129 11.461 23.1414 9.601 25.096C9.42772 25.2546 9.2168 25.3403 9 25.3403C8.7832 25.3403 8.57228 25.2546 8.399 25.096C6.539 23.1414 1 16.8129 1 10.7362C1 8.15403 1.84285 5.67758 3.34315 3.85168C4.84344 2.02578 6.87827 1 9 1C11.1217 1 13.1566 2.02578 14.6569 3.85168C16.1571 5.67758 17 8.15403 17 10.7362Z" stroke="#8D8D8D" stroke-width="2" stroke-linecap="round" stroke-linejoin="round"/>
<path d="M9 14.3873C10.6569 14.3873 12 12.7527 12 10.7362C12 8.7198 10.6569 7.08515 9 7.08515C7.34315 7.08515 6 8.7198 6 10.7362C6 12.7527 7.34315 14.3873 9 14.3873Z" stroke="#8D8D8D" stroke-width="2" stroke-linecap="round" stroke-linejoin="round"/>
</svg>
