<svg width="51" height="51" viewBox="0 0 51 51" fill="none" xmlns="http://www.w3.org/2000/svg">
<mask id="mask0_4003_77" style="mask-type:alpha" maskUnits="userSpaceOnUse" x="0" y="0" width="51" height="51">
<rect x="-6.10352e-05" width="51" height="51" fill="#D9D9D9"/>
</mask>
<g mask="url(#mask0_4003_77)">
<path d="M22.3172 26.0118C21.1885 26.0118 20.2613 25.4973 19.5356 24.4684C18.8099 23.4396 18.5484 22.2394 18.7509 20.8678L19.3374 16.5372C19.6208 14.6217 20.3585 13.0534 21.5506 11.8323C22.7424 10.6108 24.1267 10 25.7034 10C27.3163 10 28.7186 10.6108 29.9104 11.8323C31.1018 13.0534 31.8392 14.6217 32.1225 16.5372L32.709 20.8678C32.9116 22.2394 32.65 23.4396 31.9243 24.4684C31.1987 25.4973 30.2715 26.0118 29.1427 26.0118H22.3172ZM23.4653 20.4372H27.9947L27.5952 17.4547C27.5244 16.8926 27.309 16.4388 26.9492 16.0931C26.589 15.7474 26.1759 15.5745 25.7098 15.5745C25.2437 15.5745 24.8373 15.7474 24.4906 16.0931C24.1442 16.4388 23.9356 16.8926 23.8648 17.4547L23.4653 20.4372ZM6.76222 28.671C5.92426 28.715 5.20265 28.5139 4.59738 28.0678C3.99175 27.6212 3.6004 26.9344 3.42331 26.0072C3.35248 25.6102 3.33477 25.21 3.37019 24.8066C3.40561 24.4031 3.4984 24.029 3.64856 23.6842C3.64856 23.7376 3.63086 23.6456 3.59544 23.4081C3.52461 23.3128 3.34327 22.7859 3.05144 21.8273C2.98061 21.292 3.03373 20.779 3.21081 20.2885C3.3879 19.7976 3.62236 19.3745 3.91419 19.0193C3.90569 19.0193 3.94536 18.9762 4.03319 18.89C4.10615 18.0495 4.3886 17.3416 4.88053 16.7661C5.37282 16.1907 5.98341 15.903 6.71228 15.903C6.82703 15.903 7.17128 15.9892 7.74503 16.1616L7.90653 16.0969C8.09212 15.8814 8.33029 15.7172 8.62106 15.6043C8.91183 15.4918 9.22085 15.4355 9.54809 15.4355C9.9483 15.4355 10.3051 15.5133 10.6186 15.6689C10.9324 15.825 11.1789 16.0579 11.3581 16.3678C11.3938 16.3678 11.4206 16.3788 11.4383 16.4008C11.4563 16.4232 11.4833 16.4344 11.519 16.4344C12.0202 16.4784 12.4638 16.6663 12.8498 16.9982C13.2362 17.3301 13.5206 17.7838 13.703 18.3592C13.7738 18.6687 13.8004 18.9674 13.7827 19.2553C13.765 19.5428 13.7207 19.8193 13.6499 20.0848C13.6499 20.1176 13.6676 20.209 13.703 20.359C13.9587 20.6693 14.1597 21.0131 14.306 21.3902C14.4522 21.767 14.5254 22.1549 14.5254 22.554C14.5254 22.7575 14.4149 23.2204 14.1939 23.9428C14.1585 24.0187 14.1585 24.11 14.1939 24.2169L14.3001 25.2805C14.3001 26.2111 13.9819 27.0087 13.3455 27.6734C12.7087 28.3385 11.935 28.671 11.0244 28.671H6.76222ZM42.7008 28.7221C41.4998 28.7221 40.4706 28.1997 39.6131 27.1548C38.7553 26.1105 38.3264 24.8549 38.3264 23.3881C38.3264 22.8549 38.3907 22.3566 38.5193 21.8932C38.6478 21.4303 38.8223 20.9784 39.0426 20.5374L37.5041 18.8745C37.1414 18.509 37.0773 18.0624 37.3118 17.5349C37.5462 17.0073 37.8825 16.7435 38.3206 16.7435H42.7008C43.9053 16.7435 44.9341 17.2646 45.7873 18.3068C46.6409 19.3491 47.0676 20.6019 47.0676 22.0652V23.3952C47.0676 24.8585 46.6402 26.1122 45.7852 27.1561C44.9299 28.2001 43.9017 28.7221 42.7008 28.7221ZM-6.10352e-05 41.9931V37.6722C-6.10352e-05 35.7007 0.806908 34.1214 2.42085 32.9343C4.03443 31.7468 6.12862 31.1531 8.70341 31.1531C9.09618 31.1531 9.46894 31.1613 9.82169 31.1777C10.1748 31.194 10.5208 31.2352 10.8598 31.3012C10.3469 32.2042 9.96017 33.1761 9.6995 34.2171C9.43884 35.2576 9.3085 36.3662 9.3085 37.5429V41.9931H-6.10352e-05ZM12.7499 41.9931V37.5429C12.7499 34.6671 13.9461 32.3445 16.3385 30.5751C18.7313 28.8053 21.8524 27.9204 25.7018 27.9204C29.587 27.9204 32.7175 28.8053 35.0933 30.5751C37.469 32.3445 38.6569 34.6671 38.6569 37.5429V41.9931H12.7499ZM42.7034 31.1531C45.3143 31.1531 47.4175 31.7468 49.0131 32.9343C50.6089 34.1214 51.4069 35.7007 51.4069 37.6722V41.9931H42.0983V37.5429C42.0983 36.3671 41.9768 35.2589 41.7339 34.2184C41.4909 33.1779 41.1265 32.2055 40.6406 31.3012C40.9795 31.2352 41.3191 31.194 41.6595 31.1777C42.0002 31.1613 42.3482 31.1531 42.7034 31.1531ZM25.7055 33.4949C23.8547 33.4949 22.1747 33.7848 20.6656 34.3645C19.1568 34.9438 18.214 35.6233 17.8372 36.4031H33.6228C33.2105 35.6233 32.2589 34.9438 30.7678 34.3645C29.2764 33.7848 27.589 33.4949 25.7055 33.4949Z" fill="#242565"/>
</g>
</svg>
