<svg width="51" height="51" viewBox="0 0 51 51" fill="none" xmlns="http://www.w3.org/2000/svg">
<mask id="mask0_4003_70" style="mask-type:alpha" maskUnits="userSpaceOnUse" x="0" y="0" width="51" height="51">
<rect width="51" height="51" fill="white"/>
</mask>
<g mask="url(#mask0_4003_70)">
<path d="M21.7922 50.7269C19.3743 50.7269 17.3045 49.679 15.5829 47.5833C13.861 45.4881 13 42.9692 13 40.0265C13 37.0838 13.861 34.5647 15.5829 32.469C17.3045 30.3738 19.3743 29.3261 21.7922 29.3261C22.5469 29.3261 23.2443 29.4291 23.8843 29.6352C24.5246 29.8412 25.1465 30.1505 25.75 30.563V3H39.3766V14.056H30.5844V40.0265C30.5844 42.9692 29.7234 45.4881 28.0014 47.5833C26.2798 49.679 24.2101 50.7269 21.7922 50.7269Z" fill="#242565"/>
</g>
</svg>
